<?xml version="1.0" standalone="no"?>
<!DOCTYPE svg PUBLIC "-//W3C//DTD SVG 20010904//EN"
 "http://www.w3.org/TR/2001/REC-SVG-20010904/DTD/svg10.dtd">
<svg version="1.0" xmlns="http://www.w3.org/2000/svg"
 width="304.000000pt" height="304.000000pt" viewBox="0 0 304.000000 304.000000"
 preserveAspectRatio="xMidYMid meet">
<metadata>
Created by potrace 1.14, written by Peter Selinger 2001-2017
</metadata>
<g transform="translate(0.000000,304.000000) scale(0.100000,-0.100000)"
fill="#000000" stroke="none">
<path d="M1011 3029 c-20 -8 -22 -14 -17 -42 24 -118 14 -214 -36 -326 -11
-25 -24 -55 -29 -66 -21 -49 -50 -158 -64 -245 -9 -52 -23 -105 -31 -117 -16
-25 -19 -93 -4 -93 5 0 9 3 8 8 -4 16 14 48 38 66 l26 18 -7 -153 c-3 -85 -8
-176 -11 -202 -4 -44 -7 -99 -19 -342 -2 -44 -7 -240 -9 -435 -5 -343 -1 -429
28 -560 36 -163 226 -393 386 -468 88 -41 158 -54 284 -55 98 -1 135 4 194 22
64 19 166 74 198 106 7 6 25 22 41 36 79 67 200 320 218 460 4 30 10 70 13 89
9 63 11 484 3 530 -5 25 -11 65 -14 90 -12 99 -146 593 -168 615 -5 5 -9 15
-9 23 0 25 -90 212 -179 371 -45 82 -47 85 -28 78 8 -3 19 -2 26 3 9 5 3 16
-21 36 -19 16 -45 45 -58 64 -46 69 -126 134 -235 190 -60 30 -117 56 -127 56
-38 2 -96 74 -119 146 -12 38 -26 71 -31 74 -10 6 -124 24 -183 29 -22 1 -51
-1 -64 -6z"/>
</g>
</svg>
